<svg width="796" height="151" viewBox="0 0 796 151" fill="none" xmlns="http://www.w3.org/2000/svg">
<path d="M95.4219 31.875C93.2344 31.875 89.0677 31.849 82.9219 31.7969C76.776 31.7448 69.3542 31.7188 60.6562 31.7188C60.5521 39.8958 60.474 46.4583 60.4219 51.4062C60.3698 56.3542 60.3438 62.7604 60.3438 70.625C60.3438 79.5312 60.3698 88.151 60.4219 96.4844C60.526 104.766 60.6042 110.938 60.6562 115H34.7969C34.849 111.094 34.901 105.156 34.9531 97.1875C35.0052 89.1667 35.0312 80.2865 35.0312 70.5469C35.0312 63.3594 35.0312 57.2396 35.0312 52.1875C35.0312 47.1354 34.9792 40.3125 34.875 31.7188C26.3333 31.7188 18.7031 31.7448 11.9844 31.7969C5.26562 31.849 1.28125 31.875 0.03125 31.875V10.5469C4.09375 10.5469 10.7344 10.5729 19.9531 10.625C29.1719 10.625 38.3646 10.625 47.5312 10.625C58.1042 10.625 68.2083 10.625 77.8438 10.625C87.5312 10.5729 93.3906 10.5469 95.4219 10.5469V31.875ZM170.109 75.2344C170.109 81.276 168.964 87.0573 166.672 92.5781C164.38 98.0469 160.969 102.839 156.438 106.953C152.635 110.391 148.312 112.969 143.469 114.688C138.625 116.354 133.339 117.188 127.609 117.188C122.036 117.188 116.776 116.354 111.828 114.688C106.88 112.969 102.505 110.417 98.7031 107.031C94.3281 103.125 90.9427 98.3854 88.5469 92.8125C86.2031 87.2396 85.0312 81.3281 85.0312 75.0781C85.0312 68.9323 86.0469 63.3594 88.0781 58.3594C90.1094 53.3073 93.2604 48.724 97.5312 44.6094C101.385 40.8594 105.865 38.0208 110.969 36.0938C116.125 34.1667 121.646 33.2031 127.531 33.2031C133.469 33.2031 138.911 34.0885 143.859 35.8594C148.807 37.6302 153.26 40.3646 157.219 44.0625C161.542 48.1771 164.771 52.8385 166.906 58.0469C169.042 63.2031 170.109 68.9323 170.109 75.2344ZM146.281 75.5469C146.281 71.849 145.708 68.1771 144.562 64.5312C143.469 60.8854 141.672 57.8385 139.172 55.3906C137.714 53.9323 135.969 52.8385 133.938 52.1094C131.906 51.3281 129.797 50.9375 127.609 50.9375C125.005 50.9375 122.74 51.3542 120.812 52.1875C118.938 52.9688 117.115 54.2969 115.344 56.1719C113.26 58.3073 111.646 61.1198 110.5 64.6094C109.406 68.099 108.859 71.5885 108.859 75.0781C108.859 79.1406 109.406 82.8906 110.5 86.3281C111.646 89.7135 113.547 92.6562 116.203 95.1562C117.661 96.6146 119.38 97.7083 121.359 98.4375C123.339 99.1146 125.422 99.4531 127.609 99.4531C129.901 99.4531 132.089 99.0365 134.172 98.2031C136.307 97.3698 138.13 96.1719 139.641 94.6094C141.776 92.3177 143.417 89.4792 144.562 86.0938C145.708 82.7083 146.281 79.1927 146.281 75.5469ZM263.938 39.8438C253.781 62.8646 243.573 86.276 233.312 110.078C223.104 133.828 217.297 147.37 215.891 150.703L193.625 145.078L207.922 113.281C207.193 111.458 203.703 103.177 197.453 88.4375C191.255 73.6979 184.302 57.5781 176.594 40.0781L200.656 33.5156C204.927 45.3906 209.146 56.5104 213.312 66.875C217.531 77.2396 220.031 83.4375 220.812 85.4688H221.281C222.219 82.9167 224.536 77.0052 228.234 67.7344C231.984 58.4115 236.359 47.0833 241.359 33.75L263.938 39.8438ZM342.219 73.5156C342.219 86.276 342.193 96.1198 342.141 103.047C342.141 109.974 342.141 113.984 342.141 115.078C341.307 115.182 337.922 115.417 331.984 115.781C326.047 116.146 319.745 116.328 313.078 116.328C308.703 116.328 303.703 115.964 298.078 115.234C292.505 114.505 287.844 113.333 284.094 111.719C279.302 109.635 275.552 106.901 272.844 103.516C270.135 100.078 268.781 96.0677 268.781 91.4844C268.781 86.4844 270.214 82.2135 273.078 78.6719C275.995 75.1302 280.526 72.2135 286.672 69.9219C290.786 68.3594 295.865 67.1354 301.906 66.25C307.948 65.3646 313.417 64.7396 318.312 64.375C318.156 61.5625 317.401 59.2708 316.047 57.5C314.745 55.6771 312.505 54.2708 309.328 53.2812C307.245 52.6042 304.927 52.1354 302.375 51.875C299.875 51.5625 296.88 51.4062 293.391 51.4062C290.214 51.4062 287.505 51.4583 285.266 51.5625C283.026 51.6667 280.604 51.7708 278 51.875L280.109 34.4531C281.151 34.401 282.818 34.349 285.109 34.2969C287.401 34.1927 290.63 34.1406 294.797 34.1406C303.599 34.1406 310.917 34.8958 316.75 36.4062C322.635 37.9167 327.583 40.4167 331.594 43.9062C335.292 47.0833 337.974 50.9635 339.641 55.5469C341.359 60.0781 342.219 66.0677 342.219 73.5156ZM319.562 87.8906C319.562 86.224 319.562 84.2969 319.562 82.1094C319.562 79.8698 319.536 77.526 319.484 75.0781C317.974 75.1302 315.292 75.4427 311.438 76.0156C307.583 76.5365 304.146 77.4479 301.125 78.75C299.042 79.5833 297.115 80.8854 295.344 82.6562C293.625 84.4271 292.766 86.6146 292.766 89.2188C292.766 92.1354 293.521 94.4531 295.031 96.1719C296.594 97.8906 298.599 99.2188 301.047 100.156C302.818 100.781 304.823 101.25 307.062 101.562C309.302 101.875 311.724 102.031 314.328 102.031C315.005 102.031 315.786 102.031 316.672 102.031C317.557 101.979 318.495 101.953 319.484 101.953C319.484 101.276 319.484 99.6875 319.484 97.1875C319.536 94.6875 319.562 91.5885 319.562 87.8906ZM490.734 115H466.75C466.802 112.708 466.854 109.115 466.906 104.219C466.958 99.2708 466.984 93.8021 466.984 87.8125C466.984 85.4688 466.958 81.901 466.906 77.1094C466.906 72.3177 466.88 68.6198 466.828 66.0156C466.724 61.0156 465.839 57.526 464.172 55.5469C462.505 53.5156 459.875 52.5 456.281 52.5C453.938 52.5 451.281 52.9948 448.312 53.9844C445.344 54.974 442.219 56.4062 438.938 58.2812C438.938 58.4375 438.938 58.8802 438.938 59.6094C438.938 60.2865 438.938 61.1458 438.938 62.1875C438.938 66.1979 438.911 70.2344 438.859 74.2969C438.807 78.3594 438.781 81.9792 438.781 85.1562C438.781 91.9271 438.833 98.151 438.938 103.828C439.042 109.505 439.094 113.229 439.094 115H415.188C415.188 113.646 415.214 110.573 415.266 105.781C415.37 100.938 415.422 95 415.422 87.9688C415.422 85.4167 415.396 81.7708 415.344 77.0312C415.344 72.2396 415.318 68.6198 415.266 66.1719C415.214 64.4531 415.057 62.7604 414.797 61.0938C414.589 59.375 414.146 57.9167 413.469 56.7188C412.688 55.3125 411.672 54.2708 410.422 53.5938C409.224 52.8646 407.375 52.5 404.875 52.5C402.479 52.5 399.771 53.125 396.75 54.375C393.729 55.625 390.604 57.1875 387.375 59.0625C387.375 59.5833 387.349 62.8125 387.297 68.75C387.245 74.6354 387.219 79.2448 387.219 82.5781C387.219 88.151 387.271 94.4531 387.375 101.484C387.479 108.516 387.531 113.021 387.531 115H363.625C363.625 112.448 363.651 108.151 363.703 102.109C363.807 96.0156 363.859 87.4479 363.859 76.4062C363.859 71.9271 363.833 66.1458 363.781 59.0625C363.781 51.9792 363.729 44.0365 363.625 35.2344H387.062L386.984 42.9688L387.141 43.0469C390.214 41.0677 394.51 38.9323 400.031 36.6406C405.604 34.349 410.656 33.2031 415.188 33.2031C420.031 33.2031 424.172 34.1667 427.609 36.0938C431.047 37.9688 433.651 40.4427 435.422 43.5156H435.578C440.214 40.7031 445.396 38.2812 451.125 36.25C456.906 34.2188 462.089 33.2031 466.672 33.2031C474.172 33.2031 480.031 35.4427 484.25 39.9219C488.469 44.349 490.578 50.1823 490.578 57.4219C490.578 63.4115 490.552 68.3594 490.5 72.2656C490.448 76.1198 490.422 79.8958 490.422 83.5938C490.422 90.6771 490.474 97.1094 490.578 102.891C490.682 108.62 490.734 112.656 490.734 115ZM579.406 73.5156C579.406 86.276 579.38 96.1198 579.328 103.047C579.328 109.974 579.328 113.984 579.328 115.078C578.495 115.182 575.109 115.417 569.172 115.781C563.234 116.146 556.932 116.328 550.266 116.328C545.891 116.328 540.891 115.964 535.266 115.234C529.693 114.505 525.031 113.333 521.281 111.719C516.49 109.635 512.74 106.901 510.031 103.516C507.323 100.078 505.969 96.0677 505.969 91.4844C505.969 86.4844 507.401 82.2135 510.266 78.6719C513.182 75.1302 517.714 72.2135 523.859 69.9219C527.974 68.3594 533.052 67.1354 539.094 66.25C545.135 65.3646 550.604 64.7396 555.5 64.375C555.344 61.5625 554.589 59.2708 553.234 57.5C551.932 55.6771 549.693 54.2708 546.516 53.2812C544.432 52.6042 542.115 52.1354 539.562 51.875C537.062 51.5625 534.068 51.4062 530.578 51.4062C527.401 51.4062 524.693 51.4583 522.453 51.5625C520.214 51.6667 517.792 51.7708 515.188 51.875L517.297 34.4531C518.339 34.401 520.005 34.349 522.297 34.2969C524.589 34.1927 527.818 34.1406 531.984 34.1406C540.786 34.1406 548.104 34.8958 553.938 36.4062C559.823 37.9167 564.771 40.4167 568.781 43.9062C572.479 47.0833 575.161 50.9635 576.828 55.5469C578.547 60.0781 579.406 66.0677 579.406 73.5156ZM556.75 87.8906C556.75 86.224 556.75 84.2969 556.75 82.1094C556.75 79.8698 556.724 77.526 556.672 75.0781C555.161 75.1302 552.479 75.4427 548.625 76.0156C544.771 76.5365 541.333 77.4479 538.312 78.75C536.229 79.5833 534.302 80.8854 532.531 82.6562C530.812 84.4271 529.953 86.6146 529.953 89.2188C529.953 92.1354 530.708 94.4531 532.219 96.1719C533.781 97.8906 535.786 99.2188 538.234 100.156C540.005 100.781 542.01 101.25 544.25 101.562C546.49 101.875 548.911 102.031 551.516 102.031C552.193 102.031 552.974 102.031 553.859 102.031C554.745 101.979 555.682 101.953 556.672 101.953C556.672 101.276 556.672 99.6875 556.672 97.1875C556.724 94.6875 556.75 91.5885 556.75 87.8906ZM627.531 115H600.031V86.5625H627.531V115ZM708.234 53.0469C703.964 54.349 699.172 55.9896 693.859 57.9688C688.547 59.9479 681.646 62.8646 673.156 66.7188C673.156 68.0208 673.13 70.3906 673.078 73.8281C673.078 77.2656 673.078 80.7552 673.078 84.2969C673.078 89.8177 673.13 95.9896 673.234 102.812C673.339 109.635 673.391 113.698 673.391 115H649.406C649.406 113.438 649.432 109.531 649.484 103.281C649.589 97.0312 649.641 88.6719 649.641 78.2031C649.641 73.2031 649.615 66.901 649.562 59.2969C649.51 51.6927 649.458 43.6719 649.406 35.2344H672.844L672.766 46.7188L672.922 46.7969C677.87 43.724 683.182 40.8594 688.859 38.2031C694.536 35.4948 698.964 33.6719 702.141 32.7344L708.234 53.0469ZM795.344 73.9844C795.344 82.2656 793.286 89.4271 789.172 95.4688C785.057 101.51 779.328 106.172 771.984 109.453C766.776 111.745 760.76 113.385 753.938 114.375C747.167 115.365 738.885 115.859 729.094 115.859C726.333 115.859 724.068 115.833 722.297 115.781C720.578 115.781 718.885 115.781 717.219 115.781C717.219 112.135 717.245 105.339 717.297 95.3906C717.401 85.3906 717.453 72.0833 717.453 55.4688C717.453 43.3854 717.427 32.9427 717.375 24.1406C717.323 15.2865 717.271 7.39583 717.219 0.46875H741.203L740.969 35.5469C749.198 35.7552 756.047 36.5625 761.516 37.9688C767.036 39.3229 771.958 41.224 776.281 43.6719C782.479 46.849 787.193 51.0677 790.422 56.3281C793.703 61.5885 795.344 67.474 795.344 73.9844ZM771.281 73.6719C771.281 69.1406 770.057 65.2604 767.609 62.0312C765.214 58.75 762.036 56.3021 758.078 54.6875C755.734 53.6458 753.234 52.9167 750.578 52.5C747.974 52.0833 745.292 51.875 742.531 51.875C742.062 51.875 741.594 51.875 741.125 51.875C740.708 51.875 740.344 51.875 740.031 51.875C740.031 52.8125 740.005 55.9635 739.953 61.3281C739.953 66.6406 739.953 71.0938 739.953 74.6875C739.953 80.5729 739.953 85.0521 739.953 88.125C740.005 91.1458 740.031 94.375 740.031 97.8125C743.99 97.8125 747.714 97.5 751.203 96.875C754.745 96.1979 757.714 95.1823 760.109 93.8281C763.859 91.7448 766.646 89.0885 768.469 85.8594C770.344 82.6302 771.281 78.5677 771.281 73.6719Z" fill="#333333"/>
</svg>
